<?xml version="1.0" encoding="utf-8"?>
<!-- Generator: Adobe Illustrator 22.1.0, SVG Export Plug-In . SVG Version: 6.00 Build 0)  -->
<svg version="1.1" id="Layer_1" xmlns="http://www.w3.org/2000/svg" xmlns:xlink="http://www.w3.org/1999/xlink" x="0px" y="0px"
	 viewBox="0 0 512 512" style="enable-background:new 0 0 512 512;" xml:space="preserve">
<style type="text/css">
	.st0{display:none;}
	.st1{fill:#FFFFFF;}
</style>
<path class="st0" d="M0,0h512v512H0V0z"/>
<g transform="translate(0,0)">
	<path class="st1" d="M281.3,94.3c-0.1,0.1-0.2,0.1-0.2,0.2c0,0,0,0-0.1,0.1C281.1,94.5,281.1,94.4,281.3,94.3z M282,94.9
		c-0.9,0-1.6,0.3-1.8,0.3c-18.3,16-26,33.4-43.4,52c-17.2,18.5-43.7,36.2-96.7,51.2l-31.1,42.1c-1.7,2.3-4.3,3.6-7.2,3.7l-50.8,0.4
		l-14.7-8.3l-2.6,119.7l14.6-8.4h57.3c2.7,0,5.2,1.2,6.9,3.3c13.5,16.4,20,32,37.9,39.8l200.6,61.9c12.5-0.5,22.4-2,28.6-5.6
		c5.3-3,8.9-7.5,11-16.6c-5.5-2.3-23.5-9.9-47.2-19.9c-13.5-5.7-27-11.3-37.2-15.5c-5.1-2.1-9.4-3.8-12.4-5c-1.5-0.6-2.7-1-3.4-1.3
		c-0.2-0.1-0.3-0.1-0.4-0.1c-0.2,0-0.3,0.1-1.9-0.7c-1-0.5-4.7-10.6-4.7-10.6c0,0,5.6-6,6.5-6.2c2.5-0.6,3-0.2,3.5-0.2
		c0.2,0,0.3,0,0.4,0.1c0.1,0,0.3,0,0.6,0.1c0.9,0.1,2.3,0.2,4.2,0.4c3.7,0.3,9.1,0.8,15.7,1.4c13.1,1.1,30.7,2.6,48.4,4.1
		c17.7,1.5,35.5,2.9,48.9,4c6.7,0.5,12.4,1,16.4,1.3c2,0.2,3.6,0.3,4.7,0.4c0.4,0,0.7,0,1,0.1c8-0.6,12.1-2.9,14.4-5.4
		c2.3-2.5,3.3-5.6,3.1-9.5c-0.4-7.7-6.9-16.7-13.2-18.7l-125-16.4c-4.9-0.6-8.4-5.2-7.7-10.1c0.5-4.2,3.9-7.4,8.1-7.8
		c0,0,34.4-3.1,69.2-6.4c17.4-1.6,35-3.3,48.4-4.6c6.7-0.7,12.4-1.2,16.4-1.7c2-0.2,3.7-0.4,4.8-0.5c0.5-0.1,1.1-0.2,1.5-0.3
		c10.9-3.1,16.2-7.2,18.2-10.1c2-2.9,2-5.1,0.5-8.6c-2.9-7.1-15.3-15.8-23.3-16.3l-140.4-3.7c-5-0.1-8.9-4.3-8.8-9.2
		c0.1-4.2,3.1-7.8,7.2-8.6c0,0,30.5-6.2,61.9-12.5c15.7-3.2,31.6-6.4,44-8.9c12.4-2.5,20.9-4.2,23.4-4.6c9.5-1.6,13.9-5.3,16.1-9.2
		c2.3-3.9,2.7-8.9,1-14.2c-2.9-9.3-11.5-17.8-23.2-18.1c-1.7,0-3.4,0.1-5.2,0.4c-0.1,0-0.1,0-0.2,0l-149,23.7
		c-7.5,10.4-14.5,15.9-24,23c-2,57.1-12.4,85.5-27.3,100.6c-15.3,15.4-34.4,14.4-40.3,15.9l-4.4-17.5c12.1-3,22-1.1,31.9-11.1
		c9.9-10,20.8-34.6,22.3-92.8c0.1-2.8,1.4-5.3,3.6-7c12.4-9.3,17.2-12.3,25.1-23.9l35.5-78.4c-1.1-8-5-11.7-9.6-13.9
		C286.6,95.5,283.9,95,282,94.9L282,94.9z"/>
</g>
</svg>
