<?xml version="1.0" encoding="utf-8"?>
<!-- Generator: Adobe Illustrator 22.1.0, SVG Export Plug-In . SVG Version: 6.00 Build 0)  -->
<svg version="1.1" id="Layer_1" xmlns="http://www.w3.org/2000/svg" xmlns:xlink="http://www.w3.org/1999/xlink" x="0px" y="0px"
	 viewBox="0 0 512 512" style="enable-background:new 0 0 512 512;" xml:space="preserve">
<style type="text/css">
	.st0{display:none;}
	.st1{fill:#FFFFFF;}
</style>
<path class="st0" d="M0,0h512v512H0V0z"/>
<g transform="translate(0,0)">
	<path class="st1" d="M291.3,113.1c-21.1-0.2-46.5,4.8-76.2,15.5l-61.3,97.6c-1.6,2.6-4.5,4.2-7.6,4.2l-105.7,0.6l0.3,118.4
		l94.5,0.7c3.9,0,7.4,2.6,8.5,6.4c8,25.9,26.6,40.5,49.1,49.6c18.6,7.5,39.6,10.7,57.1,12c-0.9-9.7-0.9-20.8,1.7-31.5
		c1.8-7.7,5.1-15.2,10.8-21.2c4.7-4.9,11.1-8.4,18.6-9.9c-2.4-8.8-1.9-17.6,0.4-25.4c3.4-11.7,9.5-22.1,14.1-31.9c0,0,0,0,0,0
		c0.9-8.9,0.4-20.1,2-30.9c0.8-5.4,2.2-10.8,5.1-15.8c1.9-3.2,4.6-6.2,8-8.5L299,213.5c-7.8,29.3-23.8,49.3-40.3,62.2
		c-11.2,8.7-22.4,14.3-31.5,18c-9,3.7-16.9,5.8-17.4,6l-6.1-16.9c3.8-1.4,8.9-2.5,16.8-5.7c7.9-3.2,17.7-8.1,27.2-15.5
		c19-14.8,37.1-39.1,38.2-83.1c0.1-5,4.2-8.9,9.2-8.8c3.6,0.1,6.8,2.3,8.1,5.7l26.1,65.7c13.4,6.3,22.8,6.5,31.3,4
		c7.7-2.3,15.2-7.6,23-13.5c-3.2-26.7-11-53.8-21.1-81.1c-12.9-20.2-30.3-31.9-54.5-35.9C302.8,113.7,297.2,113.2,291.3,113.1
		L291.3,113.1z M419.7,147.4l-37.2,5.4c8.5,24,15.3,48.3,18.6,72.8c25.3,4.2,36.3-0.9,54.7-5.7c5.6-20.5,7.8-38.3,3.9-49.7
		c-2.1-6.2-5.5-10.8-11.8-14.7C441.9,151.7,432.7,148.7,419.7,147.4L419.7,147.4z M453.3,239.2c-15.2,4.2-30.3,8.3-55.5,4.2
		c-9.2,7.2-19.2,15-32.1,18.9c-12.5,3.8-27.4,3-44.2-4.8c-1.5,0.7-2.3,1.7-3.3,3.3c-1.2,2-2.2,5.2-2.8,9.3
		c-0.9,6.2-1.1,14.1-1.5,22.3c42.3,11.5,84.4,18.6,126.4,19.8c10.9-8.3,18.6-17.7,21.6-28.8C465,271.8,463.6,257.8,453.3,239.2
		L453.3,239.2z M310,310c-4.5,9.2-9,17.6-11.2,25.1c-2.7,9.5-2.7,16.4,5.1,25.7c30.6,19.4,65.7,25.6,102.4,30.5
		c13-8.6,24.3-17.2,29.4-26.1c5.3-9.2,6.3-18.7-3.7-35.3C391.3,328,350.6,321.1,310,310L310,310z M290,372.4
		c-0.8,0.3-1.6,0.4-2.4,0.4c-6,0.3-9.3,2.2-12.1,5.1c-2.8,2.9-5,7.4-6.3,13c-2.3,9.6-1.8,21.8-0.5,31.2
		c29.3,14.2,59.1,25.3,93.1,26.4c19.3-4.1,26.2-10.2,30.2-17.7c3.1-5.8,4.3-13.5,5.8-22.5c-35.7-4.9-72-11.9-104.9-33.1
		c-0.7-0.4-1.3-1-1.9-1.6C290.7,373.2,290.4,372.8,290,372.4L290,372.4z"/>
</g>
</svg>
