<?xml version="1.0" encoding="utf-8"?>
<!-- Generator: Adobe Illustrator 22.1.0, SVG Export Plug-In . SVG Version: 6.00 Build 0)  -->
<svg version="1.1" id="Layer_1" xmlns="http://www.w3.org/2000/svg" xmlns:xlink="http://www.w3.org/1999/xlink" x="0px" y="0px"
	 viewBox="0 0 512 512" style="enable-background:new 0 0 512 512;" xml:space="preserve">
<style type="text/css">
	.st0{display:none;}
	.st1{fill:#FFFFFF;}
</style>
<path class="st0" d="M0,0h512v512H0V0z"/>
<g transform="translate(0,0)">
	<path class="st1" d="M204.9,160.2c-6,0.1-11.9,1.1-17.8,2.8c-27,7.8-54,32.7-76,60.5c-1.7,2.1-4.1,3.3-6.8,3.4l-69.3,2l-0.3-8.9
		l0,0L34,334.8l74.4,0.1c4.7,0,8.7,3.7,9,8.4c-0.1-1.1,1.7,3.8,6.2,8.6c4.4,4.8,10.7,10.2,17.3,14.9c5,3.6,10.2,6.8,14.6,9.1
		c0-1.6,0.2-3.2,0.4-4.8c1.2-7.6,4.5-15.1,8.9-21.8c4.4-6.7,9.8-12.7,16.3-16.8c4-2.6,8.9-4.5,13.9-4.8
		c7.3-15.5,18.6-34.9,42.8-41.5c1.4-0.4,2.5-0.5,3.3-0.5s1.5,0.2,2.2,0.3c0.4,0.1,0.8,0.1,1.2,0.2c-12.9-12.3-21.8-26.2-28.5-40.8
		c-13.9,27.2-40.8,43.8-63.1,55.6l-8.4-15.9c27.5-14.6,56.8-33.8,62-68c0.7-4.9,5.3-8.3,10.2-7.5c3.4,0.5,6.2,2.9,7.2,6.2
		c7.5,24,17.7,45.4,38.6,62.4c8.7,4.8,23.9,1.7,29.9-15.3c-6.1-22.9-9.2-39.7-20-61.6C248.4,170.5,226.2,159.8,204.9,160.2
		L204.9,160.2z M428.1,180.1c-4.4,0.1-9.4,0.5-15,1.5L294.8,207c5.8,14.4,9,27.3,12.5,41.2c6.4-1.4,28.5-6,54.5-11.5
		c15-3.2,30.2-6.4,41.8-9c5.8-1.3,10.8-2.4,14.4-3.2c1.8-0.4,3.3-0.7,4.3-1c0.8-0.2,1.6-0.4,1.5-0.4c12.8-4.6,21.5-10.8,26.4-16.6
		s6-10.8,5.2-14.4c-0.7-3.5-3.2-6.9-9.9-9.5C441.3,181,435.5,180,428.1,180.1L428.1,180.1z M310.3,267
		c-5.6,18.1-19.8,28.8-34.5,30.9c2.1,0.9,4.2,1.9,6.3,2.9c8.7,4.1,17,8.4,23.5,12.4c1.6,1,3,1.9,4.4,2.9c47,6.1,102.5,8,137.4,5.2
		c7.5-0.6,11.9-3,14.4-5.6c2.5-2.5,3.4-5.4,3-8.9c-0.7-7.1-8-17.7-26.1-22.6c-19.8-5.3-49.1-9.9-75.6-12.9
		C341.4,268.7,321.2,267.3,310.3,267L310.3,267z M241.5,304.1c-15.4,4.7-22.9,16.5-29.2,29.4l57.9,29.7c2.5,1.1,4,0.9,7-0.8
		c3-1.7,6.8-5.2,10.2-9.8c5.5-7.3,9.7-16,12.1-21.9c-1-0.8-1.7-1.4-3.3-2.4c-5.4-3.4-13.4-7.5-21.7-11.4c-8.2-3.9-16.8-7.5-23.5-10
		c-3.3-1.2-6.2-2.2-8.2-2.7C242.2,304.2,241.9,304.2,241.5,304.1L241.5,304.1z M195.9,345.8c-0.3,0-0.7,0-1.2,0.1
		c-0.9,0.2-2.2,0.7-4,1.9c-3.5,2.2-7.7,6.6-10.9,11.5c-3.2,5-5.5,10.6-6.2,14.8c-0.7,4.2,0.1,6,0.9,6.8c0.2,0.2,4.2,2.9,9.3,5.4
		s11.7,5.2,18.6,7.6c13.2,4.8,28,8.4,35.4,8.8c10-2.9,14.5-6.8,16.9-11c2-3.5,2.7-8.2,2.5-14L196.7,346
		C196.5,345.9,196.2,345.9,195.9,345.8L195.9,345.8z"/>
</g>
</svg>
